HIERARCHY
ROOT hip
{
	OFFSET 0.000000 0.000000 0.000000 
	CHANNELS 6 Xposition Yposition Zposition Xrotation Zrotation Yrotation
	JOINT abdomen
	{
		OFFSET 0.000000 3.402643 0.000000 
		CHANNELS 3 Xrotation Zrotation Yrotation
		JOINT chest
		{
			OFFSET 0.000000 8.438565 -0.680529 
			CHANNELS 3 Xrotation Zrotation Yrotation
			JOINT neck
			{
				OFFSET 0.000000 10.207942 -0.272212 
				CHANNELS 3 Xrotation Zrotation Yrotation
				JOINT head
				{
					OFFSET 0.000000 3.130431 0.000000 
					CHANNELS 3 Xrotation Zrotation Yrotation
					End Site
					{
						OFFSET 0.000000 3.130435 0.000000 
					}
				}
			}
			JOINT lCollar
			{
				OFFSET 3.470700 6.669187 -0.816635 
				CHANNELS 3 Yrotation Zrotation Xrotation
				JOINT lShldr
				{
					OFFSET 3.198488 0.000000 0.000000 
					CHANNELS 3 Zrotation Yrotation Xrotation
					JOINT lForeArm
					{
						OFFSET 10.139888 0.000000 0.000000 
						CHANNELS 3 Yrotation Zrotation Xrotation
						JOINT lHand
						{
							OFFSET 8.370511 0.000000 0.000000 
							CHANNELS 3 Zrotation Yrotation Xrotation
							End Site
							{
								OFFSET 4.083176 0.000000 0.000000 
							}
						}
					}
				}
			}
			JOINT rCollar
			{
				OFFSET -3.470700 6.669187 -0.816635 
				CHANNELS 3 Yrotation Zrotation Xrotation
				JOINT rShldr
				{
					OFFSET -3.198488 0.000000 0.000000 
					CHANNELS 3 Zrotation Yrotation Xrotation
					JOINT rForeArm
					{
						OFFSET -10.139888 0.000000 0.000000 
						CHANNELS 3 Yrotation Zrotation Xrotation
						JOINT rHand
						{
							OFFSET -8.370511 0.000000 0.000000 
							CHANNELS 3 Zrotation Yrotation Xrotation
							End Site
							{
								OFFSET -4.083176 0.000000 0.000000 
							}
						}
					}
				}
			}
		}
	}
	JOINT lThigh
	{
		OFFSET 5.308129 -1.633274 1.361059 
		CHANNELS 3 Xrotation Zrotation Yrotation
		JOINT lShin
		{
			OFFSET -2.041588 -20.007561 0.000000 
			CHANNELS 3 Xrotation Zrotation Yrotation
			JOINT lFoot
			{
				OFFSET 0.000000 -19.190928 -1.224953 
				CHANNELS 3 Xrotation Yrotation Zrotation
				End Site
				{
					OFFSET 0.000000 -2.449906 4.627600 
				}
			}
		}
	}
	JOINT rThigh
	{
		OFFSET -5.308129 -1.633274 1.361059 
		CHANNELS 3 Xrotation Zrotation Yrotation
		JOINT rShin
		{
			OFFSET 2.041588 -20.007561 0.000000 
			CHANNELS 3 Xrotation Zrotation Yrotation
			JOINT rFoot
			{
				OFFSET 0.000000 -19.190928 -1.224953 
				CHANNELS 3 Xrotation Yrotation Zrotation
				End Site
				{
					OFFSET 0.000000 -2.449906 4.627600 
				}
			}
		}
	}
}
MOTION
Frames: 18
Frame Time: 0.033333
-1.363984 49.999023 3.880139 -0.478241 0.107422 0.146502 0.000000 0.000000 0.000000 -13.464280 0.634724 -0.654257 10.605822 -4.013250 0.831460 8.670946 1.816406 -0.029282 -3.521967 9.154817 6.304141 -4.312450 14.936082 -39.242249 -17.453991 7.906638 46.947498 -2.845251 7.059691 -8.057882 3.089181 -14.089146 8.026228 10.425952 -6.452358 -40.101017 12.371456 -11.187916 71.537315 2.885095 -4.897648 -8.192114 0.789229 6.681204 7.748980 7.438971 -2.431490 -7.263676 -4.092165 0.323389 -3.114411 1.395014 -7.496668 -11.741587 7.123237 1.666197 -3.841645 -4.970460 -0.115685 0.247640 
-1.390290 50.010361 3.893400 -0.380710 0.097656 0.087907 0.000000 0.000000 0.000000 -13.579915 0.566378 -0.576144 10.413249 -4.013289 0.792493 9.010064 1.923825 -0.107361 -3.521967 9.154817 6.304141 -4.225456 14.872875 -39.364079 -17.441359 7.904514 47.049221 -2.857505 7.136516 -8.071278 3.089181 -14.089146 8.026228 10.565264 -6.474106 -40.142944 12.400523 -11.216269 71.698891 3.041827 -4.629908 -8.166258 0.711374 6.827338 7.937736 7.467612 -2.636451 -7.284298 -3.933002 0.349403 -3.165840 1.317091 -7.487550 -11.809754 7.081511 1.791929 -3.857617 -4.872861 -0.100974 0.211501 
-1.410248 50.013199 3.933460 -0.488235 0.136719 0.019554 0.000000 0.000000 0.000000 -13.461883 0.537087 -0.517555 10.454978 -4.413470 0.939980 8.890090 2.343741 -0.156119 -3.521967 9.154817 6.304141 -4.313406 14.846669 -39.516289 -17.530203 7.948638 47.084278 -2.755759 7.111092 -8.067623 3.089181 -14.089146 8.026228 10.493686 -6.490026 -40.056187 12.388780 -11.185410 71.679871 2.990040 -4.745353 -8.176364 0.887273 6.791718 7.933728 7.416973 -2.606679 -7.231248 -3.758551 0.337317 -3.296479 1.500858 -7.510549 -11.841501 7.068531 1.784667 -3.722263 -5.009435 -0.119986 0.182059 
-1.414476 50.011307 3.943485 -0.449056 0.136719 0.068382 0.000000 0.000000 0.000000 -13.442993 0.537081 -0.585912 10.083629 -4.550037 1.038091 9.184214 2.363276 -0.126845 -3.521967 9.154817 6.304141 -4.426339 14.921023 -39.447014 -17.510483 7.939799 47.186001 -2.530770 7.161106 -8.088674 3.089181 -14.089146 8.026228 10.468804 -6.435720 -40.318455 12.431467 -11.240489 71.949837 3.002141 -4.960110 -8.195498 0.906914 6.764123 7.892079 7.300336 -2.587283 -7.213675 -3.928452 0.333363 -3.183086 1.325873 -7.531678 -11.872548 7.396870 1.783404 -3.850730 -5.165780 -0.113791 0.248420 
-1.448290 50.011787 3.940519 -0.205086 -0.009766 0.048828 0.000000 0.000000 0.000000 -13.600655 0.664027 -0.595663 9.536931 -4.540273 1.038092 9.700370 2.441397 -0.156108 -3.521967 9.154817 6.304141 -4.414503 14.949585 -39.490486 -17.503250 7.933161 47.184654 -2.632743 7.127546 -8.080927 3.089181 -14.089146 8.026228 10.467104 -6.509569 -40.225281 12.413750 -11.228701 71.674629 3.238584 -4.977149 -8.178981 0.497881 6.943435 7.849124 7.654425 -2.431259 -7.217649 -3.811031 0.373435 -3.345265 1.189998 -7.281264 -11.645328 7.106825 1.716066 -4.016034 -4.960706 -0.112794 0.227647 
-1.456622 50.004677 3.967340 -0.185572 0.029297 -0.048828 0.000000 0.000000 0.000000 -13.648048 0.605444 -0.517549 9.525951 -4.784251 1.116732 9.746899 2.626938 -0.195107 -3.521967 9.154817 6.304141 -4.385897 14.957826 -39.379448 -17.466341 7.924881 47.216068 -2.600285 7.299201 -8.101204 3.089181 -14.089146 8.026228 10.459240 -6.439495 -40.365074 12.409827 -11.218260 71.962151 3.260679 -4.855710 -8.175478 0.517338 6.853755 7.734179 7.645094 -2.332511 -7.095414 -3.917833 0.330523 -3.289995 1.082957 -7.342570 -11.679854 7.344831 1.704147 -3.818167 -5.077839 -0.124106 0.233369 
-1.471436 50.012722 3.978357 -0.156258 0.009766 -0.048828 0.000000 0.000000 0.000000 -13.716780 0.634739 -0.527311 10.058296 -4.735509 1.068075 9.307511 2.607407 -0.195110 -3.521967 9.154817 6.304141 -4.496355 14.887901 -39.443703 -17.457924 7.913340 47.254677 -2.647907 7.302885 -8.088326 3.089181 -14.089146 8.026228 10.423002 -6.427629 -40.118763 12.412191 -11.178540 71.772346 2.919783 -4.932108 -8.196113 0.652761 7.033207 8.091206 7.413278 -2.703674 -7.342742 -3.909859 0.356521 -3.215578 1.238135 -7.259778 -11.633742 6.964292 1.704113 -3.897148 -4.980226 -0.112880 0.206365 
-1.492586 50.017456 3.978377 -0.048833 -0.009766 0.029297 0.000000 0.000000 0.000000 -13.795668 0.605433 -0.624965 10.132048 -4.794030 1.107000 9.141195 2.695297 -0.195096 -3.521967 9.154817 6.304141 -4.510297 14.915833 -39.452530 -17.473471 7.925068 47.450928 -2.716620 7.106444 -8.072174 3.089181 -14.089146 8.026228 10.449649 -6.425613 -40.180649 12.417157 -11.181895 71.913689 2.919783 -4.932108 -8.196113 0.477890 7.066397 8.045261 7.496221 -2.636361 -7.364048 -3.775063 0.372923 -3.302902 1.003547 -7.188430 -11.549655 7.209633 1.646041 -4.150217 -5.058306 -0.126040 0.253788 
-1.511840 50.013199 4.013754 -0.185580 0.019531 -0.097656 0.000000 0.000000 0.000000 -13.588398 0.507793 -0.498027 10.065668 -4.637969 0.999149 9.258589 2.509750 -0.204881 -3.521967 9.154817 6.304141 -4.485233 14.963071 -39.369133 -17.534645 7.961730 47.157986 -2.531061 7.033143 -8.075621 3.089181 -14.089146 8.026228 10.528486 -6.421448 -40.211868 12.406626 -11.199241 71.876953 2.937318 -4.978508 -8.209393 0.741321 7.000559 7.970032 7.333905 -2.547225 -7.203936 -3.896372 0.336687 -3.213222 1.208893 -7.250302 -11.652725 7.139328 1.733198 -3.915682 -4.999674 -0.129621 0.231024 
-1.530718 50.011780 4.022975 -0.175728 -0.019531 -0.156253 0.000000 0.000000 0.000000 -13.500474 0.546857 -0.458963 10.087853 -4.530577 0.989417 9.259603 2.460925 -0.185376 -3.521967 9.154817 6.304141 -4.553585 14.970402 -39.372219 -17.548647 7.960517 46.971981 -2.490469 7.087903 -8.081786 3.089181 -14.089146 8.026228 10.599025 -6.388370 -40.489349 12.493579 -11.278905 71.716385 2.985394 -4.844210 -8.189170 0.721597 7.065215 8.034042 7.471042 -2.596166 -7.253674 -3.996797 0.340147 -3.212527 1.278780 -7.284302 -11.803054 7.073978 1.968546 -3.889185 -5.097483 -0.096733 0.181417 
-1.548469 50.001835 4.024691 -0.136479 -0.087890 -0.156265 0.000000 0.000000 0.000000 -13.442393 0.585917 -0.478491 10.108720 -4.589202 0.959432 9.316442 2.480450 -0.224399 -3.521967 9.154817 6.304141 -4.529277 14.945545 -39.320721 -17.506958 7.924945 46.834511 -2.483431 7.177639 -8.082834 3.089181 -14.089146 8.026228 10.619354 -6.408256 -40.646893 12.515887 -11.329565 71.973289 3.146400 -4.743502 -8.170659 0.419245 7.174251 8.033583 7.973089 -2.489536 -7.239185 -3.997725 0.347992 -3.325665 1.220093 -7.176360 -11.715616 7.090535 1.918358 -3.948963 -5.165823 -0.102831 0.200020 
-1.573869 49.997108 4.045785 -0.136239 -0.117187 -0.234394 0.000000 0.000000 0.000000 -13.354280 0.595685 -0.449194 10.104559 -4.647733 0.999149 9.384532 2.548809 -0.224821 -3.521967 9.154817 6.304141 -4.555918 14.992387 -39.360760 -17.525467 7.944019 47.052212 -2.540736 7.100799 -8.078649 3.089181 -14.089146 8.026228 10.618538 -6.421512 -40.791328 12.542091 -11.297669 72.703087 3.467917 -4.336208 -8.111424 0.486664 7.275890 8.129325 7.959819 -2.567137 -7.281352 -4.244093 0.333497 -3.217275 1.395978 -7.069356 -11.667062 6.758752 1.937892 -3.956805 -5.195149 -0.086506 0.132673 
-1.585179 50.002319 4.053202 -0.068106 -0.039062 -0.371100 0.000000 0.000000 0.000000 -13.304640 0.595691 -0.371074 10.233268 -4.735493 1.077807 9.170626 2.656235 -0.195103 -3.521967 9.154817 6.304141 -4.773547 15.059856 -39.406467 -17.513081 7.933920 47.204453 -2.586787 7.153739 -8.075397 3.089181 -14.089146 8.026228 10.616942 -6.472148 -40.535164 12.505605 -11.251952 72.263802 3.037656 -4.600933 -8.165045 0.604054 7.170123 8.101469 7.579244 -2.596229 -7.055308 -3.982200 0.341276 -3.264889 1.287295 -7.143713 -11.703074 6.780162 1.958196 -3.866993 -5.253638 -0.097077 0.117451 
-1.604115 49.997086 4.039374 0.000280 -0.029296 -0.546880 0.000000 0.000000 0.000000 -13.195877 0.615229 -0.234361 10.187441 -4.618342 1.067287 9.163426 2.539054 -0.146341 -3.521967 9.154817 6.304141 -5.054481 15.136207 -39.437534 -17.568638 7.953619 46.969936 -2.350473 7.323647 -8.107352 3.089181 -14.089146 8.026228 10.692023 -6.491560 -40.758099 12.614231 -11.213111 73.231598 3.469415 -4.817836 -8.154281 0.477324 7.143022 7.932615 7.729902 -2.421343 -6.821836 -3.707049 0.360294 -3.455666 0.876791 -7.159582 -11.715127 7.388055 1.930048 -3.834478 -5.321968 -0.122089 0.202269 
-1.637338 49.966831 4.007271 0.216292 -0.097646 -0.849625 0.000000 0.000000 0.000000 -13.232786 0.712891 -0.029295 10.277096 -4.364423 1.106261 9.044118 2.246094 0.029657 -3.521967 9.154817 6.304141 -5.465589 15.227623 -39.636105 -17.814407 8.087361 46.746025 -2.640929 7.323586 -8.087630 3.089181 -14.089146 8.026228 11.021442 -6.491781 -40.552433 12.637302 -11.210838 72.208252 2.708107 -5.148116 -8.233409 0.175199 7.255418 7.892563 8.011164 -2.352868 -6.532549 -4.019161 0.376189 -3.366950 0.320611 -7.110752 -11.693083 7.950553 1.948199 -3.558141 -5.556474 -0.097193 0.202382 
-1.686808 49.953102 4.013116 0.178897 -0.117146 -1.523454 0.000000 0.000000 0.000000 -12.902665 0.878874 0.488374 9.971057 -4.608133 1.331677 9.253620 2.333978 0.137003 -3.521967 9.154817 6.304141 -6.168832 15.519673 -39.288860 -17.943928 8.127517 46.263332 -2.233076 7.448099 -8.123631 3.089181 -14.089146 8.026228 11.339932 -6.496856 -40.662476 12.779367 -11.177672 72.173759 2.701060 -5.562687 -8.265694 0.252602 7.412815 8.060886 8.195756 -2.499070 -5.809653 -4.075130 0.346338 -3.348151 0.331782 -7.128941 -11.842014 7.865580 2.133708 -2.831383 -5.682767 -0.114997 0.024259 
-1.774340 49.955929 3.985234 0.282982 -0.234181 -2.334005 0.000000 0.000000 0.000000 -12.605705 1.122846 1.084350 9.514052 -5.007967 1.538431 9.538286 2.578115 0.156531 -3.521967 9.154817 6.304141 -7.524523 15.827099 -39.512024 -18.565325 8.458068 44.802727 -2.425484 7.825412 -8.148548 3.089181 -14.089146 8.026228 12.053965 -6.394929 -41.597496 13.194343 -11.330621 72.393089 2.668648 -5.537467 -8.271612 0.175006 7.834994 8.533630 8.439055 -2.908713 -5.163623 -4.044547 0.343513 -3.349092 0.107226 -6.875100 -11.627758 7.796062 2.045713 -2.176361 -5.721460 -0.094617 -0.083973 
-1.865253 49.939842 4.010767 -0.011144 -0.311972 -3.330135 0.000000 0.000000 0.000000 -11.754609 1.346993 1.797526 9.309611 -4.939327 1.665761 9.446008 2.509735 0.283787 -3.521967 9.154817 6.304141 -9.396095 16.176254 -39.668652 -19.282232 8.880951 42.260437 -2.533215 8.352347 -8.185692 3.089181 -14.089146 8.026228 12.858015 -6.302181 -42.082016 13.708363 -11.406845 72.247101 2.703754 -6.093673 -8.321522 0.653522 8.103951 8.869736 8.539538 -3.153416 -4.218071 -4.343131 0.372122 -3.180537 0.223656 -6.840914 -11.801979 7.996995 2.253537 -1.110522 -6.023153 -0.097174 -0.202671 
